# xmcd
#
# Track frame offsets:
#	150
#	16610
#	37313
#	60846
#	75791
#
# Disc length: 1307 seconds
#
# Revision: 0
# Processed by: cddbd v1.5.1PL0 Copyright (c) Steve Scherf et al.
# Submitted via: dBpowerAMP V4.0
#
DISCID=27051905
DTITLE=Jason Marbach - She Drove
DYEAR=2004
DGENRE=Country
TTITLE0=This Or That
TTITLE1=Welcome To Texas, Y'all
TTITLE2=She Drove
TTITLE3=Double-Wide Life
TTITLE4=To A Broken Man's Heart
EXTD=Thanks for the support!\n\nPlease visit http://www.jasonmarbach.com
EXTT0=
EXTT1=
EXTT2=
EXTT3=
EXTT4=
PLAYORDER=
